<svg width="85" height="114" viewBox="0 0 85 114" fill="none" xmlns="http://www.w3.org/2000/svg">
<path d="M5.22 92.29C5.22 92.27 5.22 92.25 5.22 92.23C5.22 92.21 5.22 92.19 5.22 92.17C5.22 92.0433 5.21667 91.93 5.21 91.83C5.21 91.7233 5.2 91.6367 5.18 91.57C5.17333 91.53 5.12 91.5 5.02 91.48C4.92667 91.4533 4.82667 91.4367 4.72 91.43C4.62 91.4167 4.55 91.41 4.51 91.41C4.49 91.3833 4.47667 91.3367 4.47 91.27C4.47 91.2033 4.48333 91.1567 4.51 91.13C4.71 91.1367 4.90333 91.1467 5.09 91.16C5.27667 91.1733 5.46333 91.18 5.65 91.18C5.84333 91.18 6.02333 91.1733 6.19 91.16C6.36333 91.1467 6.55 91.1367 6.75 91.13C6.77667 91.1567 6.78667 91.2033 6.78 91.27C6.78 91.3367 6.77 91.3833 6.75 91.41C6.71 91.41 6.64 91.4167 6.54 91.43C6.44 91.4367 6.34667 91.4533 6.26 91.48C6.17333 91.5 6.12333 91.53 6.11 91.57C6.08333 91.65 6.06667 91.7533 6.06 91.88C6.06 92.0067 6.06 92.1433 6.06 92.29V92.98C6.06 93.0867 6.07667 93.1667 6.11 93.22C6.14333 93.2733 6.16 93.3267 6.16 93.38C6.16 93.4067 6.15 93.43 6.13 93.45C6.11 93.47 6.05667 93.5033 5.97 93.55C5.83 93.6233 5.66667 93.7 5.48 93.78C5.3 93.86 5.07 93.9267 4.79 93.98C4.51667 94.0333 4.16333 94.06 3.73 94.06C3.25 94.06 2.81 93.9767 2.41 93.81C2.01 93.6367 1.66333 93.4033 1.37 93.11C1.08333 92.81 0.86 92.47 0.7 92.09C0.546667 91.7033 0.47 91.2933 0.47 90.86C0.47 90.4 0.55 89.97 0.71 89.57C0.876667 89.1633 1.10667 88.8033 1.4 88.49C1.69333 88.1767 2.04 87.9333 2.44 87.76C2.84667 87.58 3.29 87.49 3.77 87.49C4.09 87.49 4.42333 87.5033 4.77 87.53C5.12333 87.5567 5.48 87.61 5.84 87.69C5.84 87.69 5.85 87.76 5.87 87.9C5.89667 88.0333 5.92333 88.1933 5.95 88.38C5.97667 88.56 6 88.7267 6.02 88.88C6.04667 89.0267 6.06 89.1133 6.06 89.14C6.06667 89.1667 6.04667 89.1933 6 89.22C5.95333 89.2467 5.90333 89.26 5.85 89.26C5.80333 89.26 5.76333 89.25 5.73 89.23C5.71667 89.1567 5.68333 89.0433 5.63 88.89C5.58333 88.7367 5.49333 88.5767 5.36 88.41C5.23333 88.2433 5.04667 88.1033 4.8 87.99C4.55333 87.87 4.22667 87.81 3.82 87.81C3.46 87.81 3.13333 87.8933 2.84 88.06C2.54667 88.22 2.29333 88.44 2.08 88.72C1.87333 88.9933 1.71333 89.3 1.6 89.64C1.49333 89.9733 1.44 90.31 1.44 90.65C1.44 91.03 1.49 91.4033 1.59 91.77C1.69667 92.1367 1.85333 92.47 2.06 92.77C2.27333 93.0633 2.53667 93.3 2.85 93.48C3.17 93.6533 3.54333 93.74 3.97 93.74C4.22333 93.74 4.44667 93.7067 4.64 93.64C4.84 93.5667 5.01333 93.4933 5.16 93.42C5.19333 93.4067 5.21 93.39 5.21 93.37C5.21667 93.3433 5.22 93.3133 5.22 93.28V92.29ZM8.63125 87.58C8.82458 87.58 9.01125 87.5767 9.19125 87.57C9.37792 87.5567 9.57125 87.5467 9.77125 87.54C9.79792 87.5667 9.80792 87.6133 9.80125 87.68C9.80125 87.7467 9.79125 87.7933 9.77125 87.82C9.73125 87.82 9.65792 87.8267 9.55125 87.84C9.44458 87.8467 9.34458 87.86 9.25125 87.88C9.15792 87.9 9.10458 87.93 9.09125 87.97C9.07125 88.0367 9.05792 88.1233 9.05125 88.23C9.05125 88.3367 9.05125 88.4533 9.05125 88.58C9.05125 88.6 9.05125 88.62 9.05125 88.64C9.05125 88.66 9.05125 88.68 9.05125 88.7V92.87C9.05125 92.89 9.05125 92.91 9.05125 92.93C9.05125 92.95 9.05125 92.97 9.05125 92.99C9.05125 93.1167 9.05125 93.2333 9.05125 93.34C9.05792 93.44 9.07125 93.5233 9.09125 93.59C9.10458 93.6233 9.15792 93.6533 9.25125 93.68C9.34458 93.7067 9.44458 93.7267 9.55125 93.74C9.65792 93.7467 9.73125 93.75 9.77125 93.75C9.79125 93.7767 9.80125 93.8233 9.80125 93.89C9.80792 93.9567 9.79792 94.0033 9.77125 94.03C9.57125 94.0167 9.37792 94.0067 9.19125 94C9.01125 93.9867 8.82458 93.98 8.63125 93.98C8.44458 93.98 8.25458 93.9867 8.06125 94C7.86792 94.0067 7.67125 94.0167 7.47125 94.03C7.44458 94.0033 7.43125 93.9567 7.43125 93.89C7.43792 93.8233 7.45125 93.7767 7.47125 93.75C7.51125 93.75 7.58458 93.7467 7.69125 93.74C7.79792 93.7267 7.89792 93.7067 7.99125 93.68C8.09125 93.6533 8.14458 93.6233 8.15125 93.59C8.17792 93.51 8.19125 93.4067 8.19125 93.28C8.19792 93.1533 8.20125 93.0167 8.20125 92.87V88.7C8.20125 88.5533 8.19792 88.4167 8.19125 88.29C8.19125 88.1567 8.17792 88.05 8.15125 87.97C8.14458 87.93 8.09125 87.9 7.99125 87.88C7.89792 87.86 7.79792 87.8467 7.69125 87.84C7.58458 87.8267 7.51125 87.82 7.47125 87.82C7.45125 87.7933 7.43792 87.7467 7.43125 87.68C7.43125 87.6133 7.44458 87.5667 7.47125 87.54C7.67125 87.5467 7.86792 87.5567 8.06125 87.57C8.25458 87.5767 8.44458 87.58 8.63125 87.58ZM11.2653 87.58C11.4786 87.58 11.6853 87.5767 11.8853 87.57C12.0853 87.5567 12.282 87.5467 12.4753 87.54C12.4886 87.5667 12.492 87.62 12.4853 87.7C12.4853 87.7733 12.4753 87.8133 12.4553 87.82C12.4286 87.82 12.3653 87.83 12.2653 87.85C12.172 87.8633 12.082 87.8933 11.9953 87.94C11.9086 87.98 11.8653 88.0467 11.8653 88.14C11.8653 88.2467 11.9253 88.4667 12.0453 88.8C12.0986 88.9467 12.1686 89.1433 12.2553 89.39C12.3486 89.63 12.4486 89.8967 12.5553 90.19C12.662 90.4833 12.7686 90.7767 12.8753 91.07C12.9886 91.3633 13.0886 91.6333 13.1753 91.88C13.2686 92.1267 13.342 92.33 13.3953 92.49C13.4553 92.6433 13.4886 92.7267 13.4953 92.74C13.5086 92.7133 13.552 92.6133 13.6253 92.44C13.6986 92.26 13.7886 92.0333 13.8953 91.76C14.0086 91.4867 14.132 91.1867 14.2653 90.86C14.3986 90.5267 14.532 90.19 14.6653 89.85C14.8053 89.51 14.9353 89.19 15.0553 88.89C15.102 88.7767 15.142 88.6567 15.1753 88.53C15.2086 88.4033 15.2253 88.2967 15.2253 88.21C15.2253 88.1033 15.1786 88.0233 15.0853 87.97C14.9986 87.9167 14.902 87.88 14.7953 87.86C14.6953 87.84 14.6253 87.83 14.5853 87.83C14.5586 87.8167 14.5453 87.7733 14.5453 87.7C14.5453 87.62 14.5586 87.5667 14.5853 87.54C14.7653 87.5467 14.9353 87.5567 15.0953 87.57C15.2553 87.5767 15.4253 87.58 15.6053 87.58C15.7586 87.58 15.8786 87.58 15.9653 87.58C16.0586 87.5733 16.1486 87.5667 16.2353 87.56C16.322 87.5533 16.4286 87.5467 16.5553 87.54C16.5686 87.5667 16.572 87.62 16.5653 87.7C16.5586 87.78 16.5486 87.82 16.5353 87.82C16.4953 87.82 16.402 87.8367 16.2553 87.87C16.1153 87.9033 16.002 87.97 15.9153 88.07C15.8553 88.1367 15.7753 88.2733 15.6753 88.48C15.582 88.68 15.4986 88.8733 15.4253 89.06C15.2453 89.5067 15.0786 89.9167 14.9253 90.29C14.7786 90.6633 14.632 91.0233 14.4853 91.37C14.3453 91.7167 14.1986 92.0767 14.0453 92.45C13.892 92.8233 13.7186 93.2367 13.5253 93.69C13.472 93.8167 13.412 93.9033 13.3453 93.95C13.2853 93.9967 13.222 94.02 13.1553 94.02C13.1353 94.02 13.1186 94 13.1053 93.96C13.092 93.9133 13.0786 93.88 13.0653 93.86C12.8453 93.28 12.6386 92.74 12.4453 92.24C12.2586 91.7333 12.0653 91.22 11.8653 90.7C11.672 90.18 11.452 89.6067 11.2053 88.98C11.132 88.7867 11.0586 88.6133 10.9853 88.46C10.9186 88.3067 10.842 88.1667 10.7553 88.04C10.722 87.9867 10.662 87.9433 10.5753 87.91C10.4886 87.8767 10.402 87.8533 10.3153 87.84C10.2353 87.8267 10.1753 87.82 10.1353 87.82C10.1286 87.82 10.1253 87.7767 10.1253 87.69C10.1253 87.5967 10.1286 87.5467 10.1353 87.54C10.362 87.5467 10.5486 87.5567 10.6953 87.57C10.8486 87.5767 11.0386 87.58 11.2653 87.58ZM16.7405 92.64C16.7405 92.64 16.7705 92.56 16.8305 92.4C16.8972 92.2333 16.9839 92.01 17.0905 91.73C17.1972 91.45 17.3172 91.14 17.4505 90.8C17.5905 90.4533 17.7305 90.1 17.8705 89.74C18.0105 89.3733 18.1439 89.0233 18.2705 88.69C18.4039 88.3567 18.5205 88.0633 18.6205 87.81C18.6472 87.7567 18.7039 87.6967 18.7905 87.63C18.8839 87.5633 18.9539 87.53 19.0005 87.53C19.0139 87.53 19.0205 87.5333 19.0205 87.54C19.0272 87.54 19.0372 87.5433 19.0505 87.55L21.0405 92.77C21.1872 93.1567 21.2705 93.37 21.2905 93.41C21.3239 93.4833 21.3872 93.5467 21.4805 93.6C21.5805 93.6533 21.6772 93.6933 21.7705 93.72C21.8705 93.74 21.9339 93.75 21.9605 93.75C21.9872 93.7833 21.9972 93.8367 21.9905 93.91C21.9839 93.9767 21.9772 94.0167 21.9705 94.03C21.7772 94.0167 21.6039 94.0067 21.4505 94C21.2972 93.9867 21.1139 93.98 20.9005 93.98C20.6739 93.98 20.4839 93.9867 20.3305 94C20.1839 94.0067 19.9972 94.0167 19.7705 94.03C19.7439 94.0033 19.7305 93.9567 19.7305 93.89C19.7372 93.8233 19.7539 93.7767 19.7805 93.75C19.8405 93.75 19.9339 93.74 20.0605 93.72C20.1872 93.6933 20.2739 93.66 20.3205 93.62C20.3472 93.5933 20.3605 93.5467 20.3605 93.48C20.3605 93.42 20.3372 93.32 20.2905 93.18C20.2505 93.0333 20.1972 92.87 20.1305 92.69C20.0639 92.51 19.9972 92.3367 19.9305 92.17C19.8639 91.9967 19.8072 91.8567 19.7605 91.75C19.7205 91.6367 19.7005 91.58 19.7005 91.58C19.7005 91.58 19.6939 91.5733 19.6805 91.56C19.6672 91.5467 19.6539 91.54 19.6405 91.54C19.5405 91.5333 19.4172 91.53 19.2705 91.53C19.1239 91.53 18.9872 91.53 18.8605 91.53C18.8272 91.53 18.7939 91.53 18.7605 91.53C18.7272 91.53 18.6972 91.53 18.6705 91.53C18.4705 91.53 18.3005 91.5333 18.1605 91.54C18.0205 91.54 17.8405 91.5467 17.6205 91.56C17.6139 91.56 17.6039 91.5667 17.5905 91.58C17.5772 91.5867 17.5705 91.59 17.5705 91.59C17.5705 91.59 17.5439 91.6567 17.4905 91.79C17.4439 91.9233 17.3839 92.0833 17.3105 92.27C17.2439 92.45 17.1839 92.62 17.1305 92.78C17.0705 92.9467 17.0305 93.0867 17.0105 93.2C16.9972 93.3133 16.9905 93.4033 16.9905 93.47C16.9905 93.5433 17.0405 93.6033 17.1405 93.65C17.2472 93.69 17.3539 93.7167 17.4605 93.73C17.5739 93.7433 17.6439 93.75 17.6705 93.75C17.6839 93.7633 17.6939 93.8067 17.7005 93.88C17.7072 93.9467 17.7039 93.9967 17.6905 94.03C17.5639 94.0233 17.4539 94.0167 17.3605 94.01C17.2739 94.0033 17.1839 93.9967 17.0905 93.99C17.0039 93.9833 16.8872 93.98 16.7405 93.98C16.5939 93.98 16.4705 93.9833 16.3705 93.99C16.2705 93.9967 16.1705 94.0033 16.0705 94.01C15.9705 94.0167 15.8439 94.0233 15.6905 94.03C15.6772 94.0167 15.6705 93.9767 15.6705 93.91C15.6705 93.8367 15.6772 93.7833 15.6905 93.75C15.7505 93.75 15.8505 93.7367 15.9905 93.71C16.1372 93.6767 16.2339 93.6267 16.2805 93.56C16.3805 93.4333 16.4639 93.2933 16.5305 93.14C16.6039 92.98 16.6739 92.8133 16.7405 92.64ZM18.6505 88.71L17.7605 91.09C17.7605 91.09 17.7605 91.0967 17.7605 91.11C17.7672 91.1233 17.7739 91.13 17.7805 91.13C17.9072 91.1367 18.0572 91.1433 18.2305 91.15C18.4105 91.15 18.5539 91.15 18.6605 91.15C18.8139 91.15 18.9505 91.1467 19.0705 91.14C19.1972 91.1333 19.3339 91.1267 19.4805 91.12C19.4939 91.12 19.5005 91.1133 19.5005 91.1C19.5072 91.08 19.5105 91.07 19.5105 91.07L18.6505 88.71ZM23.9536 92.87C23.9536 92.8833 23.9536 92.9033 23.9536 92.93C23.9536 92.99 23.9536 93.07 23.9536 93.17C23.9536 93.2633 23.9569 93.35 23.9636 93.43C23.9703 93.51 23.9836 93.5567 24.0036 93.57C24.0703 93.6167 24.1503 93.6467 24.2436 93.66C24.3436 93.6667 24.4969 93.67 24.7036 93.67H25.2536C25.4403 93.67 25.6436 93.65 25.8636 93.61C26.0903 93.5633 26.2703 93.4933 26.4036 93.4C26.5236 93.3133 26.6336 93.1933 26.7336 93.04C26.8403 92.8867 26.9336 92.68 27.0136 92.42C27.0269 92.38 27.0736 92.36 27.1536 92.36C27.2736 92.36 27.3536 92.38 27.3936 92.42C27.3003 92.6867 27.1969 92.97 27.0836 93.27C26.9769 93.57 26.9069 93.8267 26.8736 94.04C26.3469 94.04 25.8236 94.0333 25.3036 94.02C24.7836 94.0067 24.1969 94 23.5436 94C23.3169 94 23.1136 94.0033 22.9336 94.01C22.7536 94.0233 22.5669 94.03 22.3736 94.03C22.3469 94.0033 22.3336 93.9567 22.3336 93.89C22.3403 93.8233 22.3536 93.7767 22.3736 93.75C22.4136 93.75 22.4869 93.7467 22.5936 93.74C22.7003 93.7267 22.8003 93.7067 22.8936 93.68C22.9936 93.6533 23.0469 93.6233 23.0536 93.59C23.0803 93.51 23.0936 93.4067 23.0936 93.28C23.1003 93.1533 23.1036 93.0167 23.1036 92.87V88.7C23.1036 88.5533 23.1003 88.4167 23.0936 88.29C23.0936 88.1567 23.0803 88.05 23.0536 87.97C23.0469 87.93 22.9936 87.9 22.8936 87.88C22.8003 87.86 22.7003 87.8467 22.5936 87.84C22.4869 87.8267 22.4136 87.82 22.3736 87.82C22.3536 87.7933 22.3403 87.7467 22.3336 87.68C22.3336 87.6133 22.3469 87.5667 22.3736 87.54C22.5736 87.5467 22.7703 87.5567 22.9636 87.57C23.1569 87.5767 23.3469 87.58 23.5336 87.58C23.7269 87.58 23.9136 87.5767 24.0936 87.57C24.2803 87.5567 24.4736 87.5467 24.6736 87.54C24.7003 87.5667 24.7103 87.6133 24.7036 87.68C24.7036 87.7467 24.6936 87.7933 24.6736 87.82C24.6336 87.82 24.5603 87.8267 24.4536 87.84C24.3469 87.8467 24.2469 87.86 24.1536 87.88C24.0603 87.9 24.0069 87.93 23.9936 87.97C23.9736 88.0367 23.9603 88.1233 23.9536 88.23C23.9536 88.3367 23.9536 88.4533 23.9536 88.58C23.9536 88.6 23.9536 88.62 23.9536 88.64C23.9536 88.66 23.9536 88.68 23.9536 88.7V92.87ZM30.4416 87.57C31.155 87.57 31.7683 87.71 32.2816 87.99C32.795 88.2633 33.1883 88.64 33.4616 89.12C33.735 89.5933 33.8716 90.1333 33.8716 90.74C33.8716 91.1533 33.815 91.5567 33.7016 91.95C33.5883 92.3433 33.395 92.6967 33.1216 93.01C32.855 93.3233 32.4916 93.5733 32.0316 93.76C31.5716 93.94 30.9983 94.03 30.3116 94.03H27.8716C27.845 94.0033 27.8316 93.9567 27.8316 93.89C27.8383 93.8233 27.8516 93.7767 27.8716 93.75C27.9116 93.75 27.985 93.7467 28.0916 93.74C28.1983 93.7267 28.2983 93.7067 28.3916 93.68C28.4916 93.6533 28.545 93.6233 28.5516 93.59C28.5783 93.51 28.5916 93.4067 28.5916 93.28C28.5983 93.1533 28.6016 93.0167 28.6016 92.87V88.7C28.6016 88.5533 28.5983 88.4167 28.5916 88.29C28.5916 88.1567 28.5783 88.05 28.5516 87.97C28.545 87.93 28.4916 87.9 28.3916 87.88C28.2983 87.86 28.1983 87.8467 28.0916 87.84C27.985 87.8267 27.9116 87.82 27.8716 87.82C27.8516 87.7933 27.8383 87.7467 27.8316 87.68C27.8316 87.6133 27.845 87.5667 27.8716 87.54C28.0716 87.5467 28.2683 87.5567 28.4616 87.57C28.655 87.5767 28.845 87.58 29.0316 87.58C29.225 87.58 29.455 87.58 29.7216 87.58C29.9883 87.5733 30.2283 87.57 30.4416 87.57ZM29.4616 88.72V92.88C29.4616 92.9267 29.4616 93.0033 29.4616 93.11C29.4616 93.21 29.465 93.31 29.4716 93.41C29.485 93.5033 29.4983 93.56 29.5116 93.58C29.5516 93.6333 29.6483 93.67 29.8016 93.69C29.9616 93.71 30.1316 93.72 30.3116 93.72C30.7783 93.72 31.205 93.62 31.5916 93.42C31.985 93.22 32.3016 92.9167 32.5416 92.51C32.7816 92.0967 32.9016 91.5733 32.9016 90.94C32.9016 90.3867 32.825 89.9167 32.6716 89.53C32.525 89.1433 32.3216 88.83 32.0616 88.59C31.8083 88.3433 31.5183 88.1667 31.1916 88.06C30.8716 87.9467 30.535 87.89 30.1816 87.89C30.1416 87.89 30.0683 87.8933 29.9616 87.9C29.855 87.9 29.755 87.9067 29.6616 87.92C29.5683 87.9333 29.515 87.9567 29.5016 87.99C29.4816 88.0567 29.4683 88.1467 29.4616 88.26C29.4616 88.3667 29.4616 88.48 29.4616 88.6C29.4616 88.62 29.4616 88.64 29.4616 88.66C29.4616 88.68 29.4616 88.7 29.4616 88.72ZM38.0052 87.49C38.4386 87.49 38.8452 87.57 39.2252 87.73C39.6119 87.89 39.9519 88.12 40.2452 88.42C40.5386 88.7133 40.7686 89.0633 40.9352 89.47C41.1086 89.87 41.1952 90.3133 41.1952 90.8C41.1952 91.26 41.1086 91.69 40.9352 92.09C40.7686 92.4833 40.5386 92.8333 40.2452 93.14C39.9519 93.44 39.6119 93.6767 39.2252 93.85C38.8452 94.0167 38.4386 94.1 38.0052 94.1C37.5786 94.1 37.1719 94.02 36.7852 93.86C36.4052 93.7 36.0686 93.4733 35.7752 93.18C35.4886 92.88 35.2619 92.53 35.0952 92.13C34.9286 91.7233 34.8452 91.28 34.8452 90.8C34.8452 90.34 34.9286 89.91 35.0952 89.51C35.2619 89.11 35.4886 88.76 35.7752 88.46C36.0686 88.1533 36.4052 87.9167 36.7852 87.75C37.1719 87.5767 37.5786 87.49 38.0052 87.49ZM37.8652 87.82C37.4986 87.82 37.1852 87.9033 36.9252 88.07C36.6652 88.23 36.4519 88.4433 36.2852 88.71C36.1252 88.9767 36.0052 89.2733 35.9252 89.6C35.8519 89.9267 35.8152 90.2533 35.8152 90.58C35.8152 90.96 35.8652 91.34 35.9652 91.72C36.0719 92.0933 36.2252 92.4367 36.4252 92.75C36.6252 93.0567 36.8686 93.3033 37.1552 93.49C37.4486 93.6767 37.7852 93.77 38.1652 93.77C38.5319 93.77 38.8452 93.69 39.1052 93.53C39.3652 93.3633 39.5786 93.1433 39.7452 92.87C39.9119 92.5967 40.0319 92.2967 40.1052 91.97C40.1852 91.6367 40.2252 91.3067 40.2252 90.98C40.2252 90.6 40.1719 90.2233 40.0652 89.85C39.9652 89.4767 39.8119 89.1367 39.6052 88.83C39.4052 88.5233 39.1586 88.28 38.8652 88.1C38.5786 87.9133 38.2452 87.82 37.8652 87.82ZM47.1398 87.5C47.3465 87.5 47.5165 87.5133 47.6498 87.54C47.7898 87.56 47.9298 87.59 48.0698 87.63C48.2165 87.67 48.3965 87.7167 48.6098 87.77C48.6498 88.0233 48.6798 88.2867 48.6998 88.56C48.7265 88.8267 48.7432 89.0267 48.7498 89.16C48.7565 89.1933 48.7332 89.22 48.6798 89.24C48.6265 89.2533 48.5832 89.26 48.5498 89.26C48.5032 89.26 48.4665 89.2467 48.4398 89.22C48.4265 89.1 48.3865 88.96 48.3198 88.8C48.2532 88.64 48.1598 88.4867 48.0398 88.34C47.9265 88.1933 47.7865 88.0733 47.6198 87.98C47.4598 87.88 47.2765 87.83 47.0698 87.83C46.8032 87.83 46.5932 87.8867 46.4398 88C46.2865 88.1133 46.1765 88.2533 46.1098 88.42C46.0432 88.5867 46.0098 88.75 46.0098 88.91C46.0098 89.17 46.0765 89.3867 46.2098 89.56C46.3498 89.7333 46.5232 89.8867 46.7298 90.02C46.9432 90.1533 47.1565 90.29 47.3698 90.43C47.5298 90.53 47.7065 90.64 47.8998 90.76C48.0932 90.88 48.2798 91.0133 48.4598 91.16C48.6398 91.3067 48.7865 91.4767 48.8998 91.67C49.0132 91.8567 49.0698 92.07 49.0698 92.31C49.0698 92.6633 48.9698 92.9767 48.7698 93.25C48.5765 93.5167 48.3232 93.7267 48.0098 93.88C47.7032 94.0267 47.3765 94.1 47.0298 94.1C46.7032 94.1 46.3865 94.0633 46.0798 93.99C45.7798 93.9167 45.5098 93.8567 45.2698 93.81C45.2298 93.6167 45.1932 93.41 45.1598 93.19C45.1332 92.97 45.1098 92.7767 45.0898 92.61C45.0765 92.4433 45.0698 92.34 45.0698 92.3C45.1032 92.2667 45.1398 92.24 45.1798 92.22C45.2265 92.1933 45.2732 92.18 45.3198 92.18C45.3798 92.18 45.4165 92.21 45.4298 92.27C45.4498 92.3633 45.4898 92.4933 45.5498 92.66C45.6165 92.82 45.7098 92.9867 45.8298 93.16C45.9565 93.3333 46.1165 93.48 46.3098 93.6C46.5098 93.7133 46.7565 93.77 47.0498 93.77C47.3632 93.77 47.6365 93.6667 47.8698 93.46C48.1032 93.2467 48.2198 92.95 48.2198 92.57C48.2198 92.2967 48.1565 92.0833 48.0298 91.93C47.9098 91.7767 47.7498 91.6433 47.5498 91.53C47.3565 91.4167 47.1465 91.2967 46.9198 91.17C46.6732 91.0233 46.4165 90.8633 46.1498 90.69C45.8898 90.51 45.6698 90.3 45.4898 90.06C45.3098 89.82 45.2198 89.5367 45.2198 89.21C45.2198 88.8633 45.3098 88.5633 45.4898 88.31C45.6765 88.05 45.9165 87.85 46.2098 87.71C46.5032 87.57 46.8132 87.5 47.1398 87.5ZM50.4222 92.64C50.4222 92.64 50.4522 92.56 50.5122 92.4C50.5789 92.2333 50.6655 92.01 50.7722 91.73C50.8789 91.45 50.9989 91.14 51.1322 90.8C51.2722 90.4533 51.4122 90.1 51.5522 89.74C51.6922 89.3733 51.8255 89.0233 51.9522 88.69C52.0855 88.3567 52.2022 88.0633 52.3022 87.81C52.3289 87.7567 52.3855 87.6967 52.4722 87.63C52.5655 87.5633 52.6355 87.53 52.6822 87.53C52.6955 87.53 52.7022 87.5333 52.7022 87.54C52.7089 87.54 52.7189 87.5433 52.7322 87.55L54.7222 92.77C54.8689 93.1567 54.9522 93.37 54.9722 93.41C55.0055 93.4833 55.0689 93.5467 55.1622 93.6C55.2622 93.6533 55.3589 93.6933 55.4522 93.72C55.5522 93.74 55.6155 93.75 55.6422 93.75C55.6689 93.7833 55.6789 93.8367 55.6722 93.91C55.6655 93.9767 55.6589 94.0167 55.6522 94.03C55.4589 94.0167 55.2855 94.0067 55.1322 94C54.9789 93.9867 54.7955 93.98 54.5822 93.98C54.3555 93.98 54.1655 93.9867 54.0122 94C53.8655 94.0067 53.6789 94.0167 53.4522 94.03C53.4255 94.0033 53.4122 93.9567 53.4122 93.89C53.4189 93.8233 53.4355 93.7767 53.4622 93.75C53.5222 93.75 53.6155 93.74 53.7422 93.72C53.8689 93.6933 53.9555 93.66 54.0022 93.62C54.0289 93.5933 54.0422 93.5467 54.0422 93.48C54.0422 93.42 54.0189 93.32 53.9722 93.18C53.9322 93.0333 53.8789 92.87 53.8122 92.69C53.7455 92.51 53.6789 92.3367 53.6122 92.17C53.5455 91.9967 53.4889 91.8567 53.4422 91.75C53.4022 91.6367 53.3822 91.58 53.3822 91.58C53.3822 91.58 53.3755 91.5733 53.3622 91.56C53.3489 91.5467 53.3355 91.54 53.3222 91.54C53.2222 91.5333 53.0989 91.53 52.9522 91.53C52.8055 91.53 52.6689 91.53 52.5422 91.53C52.5089 91.53 52.4755 91.53 52.4422 91.53C52.4089 91.53 52.3789 91.53 52.3522 91.53C52.1522 91.53 51.9822 91.5333 51.8422 91.54C51.7022 91.54 51.5222 91.5467 51.3022 91.56C51.2955 91.56 51.2855 91.5667 51.2722 91.58C51.2589 91.5867 51.2522 91.59 51.2522 91.59C51.2522 91.59 51.2255 91.6567 51.1722 91.79C51.1255 91.9233 51.0655 92.0833 50.9922 92.27C50.9255 92.45 50.8655 92.62 50.8122 92.78C50.7522 92.9467 50.7122 93.0867 50.6922 93.2C50.6789 93.3133 50.6722 93.4033 50.6722 93.47C50.6722 93.5433 50.7222 93.6033 50.8222 93.65C50.9289 93.69 51.0355 93.7167 51.1422 93.73C51.2555 93.7433 51.3255 93.75 51.3522 93.75C51.3655 93.7633 51.3755 93.8067 51.3822 93.88C51.3889 93.9467 51.3855 93.9967 51.3722 94.03C51.2455 94.0233 51.1355 94.0167 51.0422 94.01C50.9555 94.0033 50.8655 93.9967 50.7722 93.99C50.6855 93.9833 50.5689 93.98 50.4222 93.98C50.2755 93.98 50.1522 93.9833 50.0522 93.99C49.9522 93.9967 49.8522 94.0033 49.7522 94.01C49.6522 94.0167 49.5255 94.0233 49.3722 94.03C49.3589 94.0167 49.3522 93.9767 49.3522 93.91C49.3522 93.8367 49.3589 93.7833 49.3722 93.75C49.4322 93.75 49.5322 93.7367 49.6722 93.71C49.8189 93.6767 49.9155 93.6267 49.9622 93.56C50.0622 93.4333 50.1455 93.2933 50.2122 93.14C50.2855 92.98 50.3555 92.8133 50.4222 92.64ZM52.3322 88.71L51.4422 91.09C51.4422 91.09 51.4422 91.0967 51.4422 91.11C51.4489 91.1233 51.4555 91.13 51.4622 91.13C51.5889 91.1367 51.7389 91.1433 51.9122 91.15C52.0922 91.15 52.2355 91.15 52.3422 91.15C52.4955 91.15 52.6322 91.1467 52.7522 91.14C52.8789 91.1333 53.0155 91.1267 53.1622 91.12C53.1755 91.12 53.1822 91.1133 53.1822 91.1C53.1889 91.08 53.1922 91.07 53.1922 91.07L52.3322 88.71ZM57.0152 87.55C57.1619 87.55 57.3052 87.55 57.4452 87.55C57.5852 87.55 57.6886 87.5467 57.7552 87.54C57.8552 87.6933 58.0152 87.91 58.2352 88.19C58.4552 88.47 58.7119 88.79 59.0052 89.15C59.2986 89.5033 59.6019 89.87 59.9152 90.25C60.2286 90.63 60.5319 91.0067 60.8252 91.38C61.1186 91.7467 61.3719 92.08 61.5852 92.38V88.68C61.5852 88.5067 61.5819 88.37 61.5752 88.27C61.5686 88.17 61.5386 88.08 61.4852 88C61.4652 87.9667 61.4052 87.9367 61.3052 87.91C61.2052 87.8767 61.0986 87.8533 60.9852 87.84C60.8786 87.82 60.7986 87.81 60.7452 87.81C60.7186 87.7767 60.7052 87.73 60.7052 87.67C60.7119 87.6033 60.7186 87.5567 60.7252 87.53C60.9186 87.5367 61.0986 87.5467 61.2652 87.56C61.4386 87.5667 61.6319 87.57 61.8452 87.57C61.9986 87.57 62.1219 87.57 62.2152 87.57C62.3152 87.5633 62.4152 87.5567 62.5152 87.55C62.6219 87.5433 62.7486 87.5367 62.8952 87.53C62.9086 87.5567 62.9186 87.5967 62.9252 87.65C62.9319 87.7033 62.9219 87.7567 62.8952 87.81C62.8552 87.81 62.7752 87.8167 62.6552 87.83C62.5419 87.8433 62.4319 87.8667 62.3252 87.9C62.2186 87.9267 62.1519 87.96 62.1252 88C62.0786 88.0733 62.0519 88.1567 62.0452 88.25C62.0386 88.3433 62.0352 88.4833 62.0352 88.67V92.64C62.0352 92.8267 62.0352 92.99 62.0352 93.13C62.0352 93.27 62.0352 93.4067 62.0352 93.54C62.0419 93.6667 62.0486 93.8167 62.0552 93.99C62.0486 94.0167 62.0286 94.0333 61.9952 94.04C61.9619 94.0467 61.9386 94.05 61.9252 94.05C61.8986 94.05 61.8519 94.0333 61.7852 94C61.7252 93.9667 61.6586 93.9067 61.5852 93.82L57.3252 88.44V92.88C57.3252 93.0533 57.3286 93.19 57.3352 93.29C57.3486 93.3833 57.3786 93.47 57.4252 93.55C57.4452 93.5833 57.5019 93.6167 57.5952 93.65C57.6952 93.6767 57.7986 93.7 57.9052 93.72C58.0186 93.74 58.1019 93.75 58.1552 93.75C58.1819 93.7833 58.1952 93.83 58.1952 93.89C58.1952 93.95 58.1886 93.9967 58.1752 94.03C57.9819 94.0167 57.8019 94.0067 57.6352 94C57.4686 93.9867 57.2786 93.98 57.0652 93.98C56.9186 93.98 56.7919 93.9833 56.6852 93.99C56.5852 93.9967 56.4852 94.0033 56.3852 94.01C56.2919 94.0167 56.1686 94.0233 56.0152 94.03C56.0019 94.0033 55.9919 93.9633 55.9852 93.91C55.9786 93.8567 55.9886 93.8033 56.0152 93.75C56.0552 93.75 56.1319 93.7433 56.2452 93.73C56.3586 93.71 56.4686 93.6867 56.5752 93.66C56.6886 93.6267 56.7552 93.59 56.7752 93.55C56.8219 93.4767 56.8486 93.3967 56.8552 93.31C56.8686 93.2167 56.8752 93.0767 56.8752 92.89V88.65C56.8752 88.4633 56.8686 88.3233 56.8552 88.23C56.8486 88.1367 56.8219 88.0533 56.7752 87.98C56.7552 87.94 56.6886 87.9067 56.5752 87.88C56.4686 87.8467 56.3586 87.8233 56.2452 87.81C56.1319 87.7967 56.0552 87.79 56.0152 87.79C55.9886 87.7367 55.9786 87.6833 55.9852 87.63C55.9919 87.5767 56.0019 87.5367 56.0152 87.51C56.2419 87.5167 56.4252 87.5267 56.5652 87.54C56.7052 87.5467 56.8552 87.55 57.0152 87.55ZM68.1436 87.54C68.2236 87.54 68.3269 87.5233 68.4536 87.49C68.5803 87.4567 68.6736 87.4267 68.7336 87.4C68.7869 87.3733 68.8236 87.36 68.8436 87.36C68.8636 87.36 68.8869 87.3667 68.9136 87.38C68.9469 87.68 68.9836 87.97 69.0236 88.25C69.0703 88.53 69.1203 88.8 69.1736 89.06C69.1603 89.0733 69.1369 89.09 69.1036 89.11C69.0703 89.13 69.0303 89.1367 68.9836 89.13C68.9103 89.13 68.8636 89.1133 68.8436 89.08C68.7769 88.74 68.6669 88.4567 68.5136 88.23C68.3603 88.0033 68.1603 87.89 67.9136 87.89H66.6736V92.87C66.6736 93.0167 66.6736 93.1533 66.6736 93.28C66.6803 93.4067 66.6969 93.51 66.7236 93.59C66.7369 93.6233 66.7903 93.6533 66.8836 93.68C66.9769 93.7067 67.0736 93.7267 67.1736 93.74C67.2803 93.7467 67.3536 93.75 67.3936 93.75C67.4136 93.7767 67.4236 93.8233 67.4236 93.89C67.4303 93.9567 67.4203 94.0033 67.3936 94.03C67.1936 94.0167 67.0003 94.0067 66.8136 94C66.6336 93.9867 66.4469 93.98 66.2536 93.98C66.0669 93.98 65.8769 93.9867 65.6836 94C65.4903 94.0067 65.2936 94.0167 65.0936 94.03C65.0669 94.0033 65.0536 93.9567 65.0536 93.89C65.0603 93.8233 65.0736 93.7767 65.0936 93.75C65.1336 93.75 65.2069 93.7467 65.3136 93.74C65.4203 93.7267 65.5203 93.7067 65.6136 93.68C65.7136 93.6533 65.7669 93.6233 65.7736 93.59C65.8003 93.51 65.8136 93.4067 65.8136 93.28C65.8203 93.1533 65.8236 93.0167 65.8236 92.87V87.89H64.5636C64.3169 87.89 64.1169 88.0033 63.9636 88.23C63.8103 88.4567 63.6969 88.74 63.6236 89.08C63.6036 89.1133 63.5569 89.13 63.4836 89.13C63.4369 89.1367 63.3969 89.13 63.3636 89.11C63.3369 89.09 63.3169 89.0733 63.3036 89.06C63.3569 88.8 63.4036 88.53 63.4436 88.25C63.4836 87.97 63.5203 87.68 63.5536 87.38C63.5869 87.3667 63.6269 87.3667 63.6736 87.38C63.7203 87.3867 63.7569 87.3967 63.7836 87.41C63.8436 87.4367 63.9269 87.4667 64.0336 87.5C64.1469 87.5267 64.2436 87.54 64.3236 87.54H68.1436ZM72.8783 87.49C73.3116 87.49 73.7183 87.57 74.0983 87.73C74.4849 87.89 74.8249 88.12 75.1183 88.42C75.4116 88.7133 75.6416 89.0633 75.8083 89.47C75.9816 89.87 76.0683 90.3133 76.0683 90.8C76.0683 91.26 75.9816 91.69 75.8083 92.09C75.6416 92.4833 75.4116 92.8333 75.1183 93.14C74.8249 93.44 74.4849 93.6767 74.0983 93.85C73.7183 94.0167 73.3116 94.1 72.8783 94.1C72.4516 94.1 72.0449 94.02 71.6583 93.86C71.2783 93.7 70.9416 93.4733 70.6483 93.18C70.3616 92.88 70.1349 92.53 69.9683 92.13C69.8016 91.7233 69.7183 91.28 69.7183 90.8C69.7183 90.34 69.8016 89.91 69.9683 89.51C70.1349 89.11 70.3616 88.76 70.6483 88.46C70.9416 88.1533 71.2783 87.9167 71.6583 87.75C72.0449 87.5767 72.4516 87.49 72.8783 87.49ZM72.7383 87.82C72.3716 87.82 72.0583 87.9033 71.7983 88.07C71.5383 88.23 71.3249 88.4433 71.1583 88.71C70.9983 88.9767 70.8783 89.2733 70.7983 89.6C70.7249 89.9267 70.6883 90.2533 70.6883 90.58C70.6883 90.96 70.7383 91.34 70.8383 91.72C70.9449 92.0933 71.0983 92.4367 71.2983 92.75C71.4983 93.0567 71.7416 93.3033 72.0283 93.49C72.3216 93.6767 72.6583 93.77 73.0383 93.77C73.4049 93.77 73.7183 93.69 73.9783 93.53C74.2383 93.3633 74.4516 93.1433 74.6183 92.87C74.7849 92.5967 74.9049 92.2967 74.9783 91.97C75.0583 91.6367 75.0983 91.3067 75.0983 90.98C75.0983 90.6 75.0449 90.2233 74.9383 89.85C74.8383 89.4767 74.6849 89.1367 74.4783 88.83C74.2783 88.5233 74.0316 88.28 73.7383 88.1C73.4516 87.9133 73.1183 87.82 72.7383 87.82ZM79.093 87.5C79.2996 87.5 79.4696 87.5133 79.603 87.54C79.743 87.56 79.883 87.59 80.023 87.63C80.1696 87.67 80.3496 87.7167 80.563 87.77C80.603 88.0233 80.633 88.2867 80.653 88.56C80.6796 88.8267 80.6963 89.0267 80.703 89.16C80.7096 89.1933 80.6863 89.22 80.633 89.24C80.5796 89.2533 80.5363 89.26 80.503 89.26C80.4563 89.26 80.4196 89.2467 80.393 89.22C80.3796 89.1 80.3396 88.96 80.273 88.8C80.2063 88.64 80.113 88.4867 79.993 88.34C79.8796 88.1933 79.7396 88.0733 79.573 87.98C79.413 87.88 79.2296 87.83 79.023 87.83C78.7563 87.83 78.5463 87.8867 78.393 88C78.2396 88.1133 78.1296 88.2533 78.063 88.42C77.9963 88.5867 77.963 88.75 77.963 88.91C77.963 89.17 78.0296 89.3867 78.163 89.56C78.303 89.7333 78.4763 89.8867 78.683 90.02C78.8963 90.1533 79.1096 90.29 79.323 90.43C79.483 90.53 79.6596 90.64 79.853 90.76C80.0463 90.88 80.233 91.0133 80.413 91.16C80.593 91.3067 80.7396 91.4767 80.853 91.67C80.9663 91.8567 81.023 92.07 81.023 92.31C81.023 92.6633 80.923 92.9767 80.723 93.25C80.5296 93.5167 80.2763 93.7267 79.963 93.88C79.6563 94.0267 79.3296 94.1 78.983 94.1C78.6563 94.1 78.3396 94.0633 78.033 93.99C77.733 93.9167 77.463 93.8567 77.223 93.81C77.183 93.6167 77.1463 93.41 77.113 93.19C77.0863 92.97 77.063 92.7767 77.043 92.61C77.0296 92.4433 77.023 92.34 77.023 92.3C77.0563 92.2667 77.093 92.24 77.133 92.22C77.1796 92.1933 77.2263 92.18 77.273 92.18C77.333 92.18 77.3696 92.21 77.383 92.27C77.403 92.3633 77.443 92.4933 77.503 92.66C77.5696 92.82 77.663 92.9867 77.783 93.16C77.9096 93.3333 78.0696 93.48 78.263 93.6C78.463 93.7133 78.7096 93.77 79.003 93.77C79.3163 93.77 79.5896 93.6667 79.823 93.46C80.0563 93.2467 80.173 92.95 80.173 92.57C80.173 92.2967 80.1096 92.0833 79.983 91.93C79.863 91.7767 79.703 91.6433 79.503 91.53C79.3096 91.4167 79.0996 91.2967 78.873 91.17C78.6263 91.0233 78.3696 90.8633 78.103 90.69C77.843 90.51 77.623 90.3 77.443 90.06C77.263 89.82 77.173 89.5367 77.173 89.21C77.173 88.8633 77.263 88.5633 77.443 88.31C77.6296 88.05 77.8696 87.85 78.163 87.71C78.4563 87.57 78.7663 87.5 79.093 87.5Z" fill="#EEEEEE"/>
<path d="M30.49 98.78C30.6 98.78 30.7133 98.7933 30.83 98.82C30.9467 98.8433 31.0533 98.8833 31.15 98.94C31.2467 98.9933 31.325 99.0667 31.385 99.16C31.445 99.2533 31.475 99.37 31.475 99.51C31.475 99.6333 31.445 99.745 31.385 99.845C31.3283 99.945 31.26 100.027 31.18 100.09C31.1033 100.153 31.0367 100.197 30.98 100.22C30.97 100.227 30.97 100.233 30.98 100.24C31.04 100.243 31.11 100.263 31.19 100.3C31.27 100.337 31.3483 100.39 31.425 100.46C31.505 100.527 31.57 100.608 31.62 100.705C31.67 100.802 31.695 100.91 31.695 101.03C31.695 101.17 31.67 101.3 31.62 101.42C31.5733 101.54 31.49 101.65 31.37 101.75C31.2533 101.847 31.1 101.915 30.91 101.955C30.72 101.992 30.5317 102.012 30.345 102.015H29.22C29.2067 102.002 29.2 101.978 29.2 101.945C29.2033 101.912 29.21 101.888 29.22 101.875C29.24 101.875 29.2767 101.873 29.33 101.87C29.3833 101.863 29.4333 101.853 29.48 101.84C29.53 101.827 29.5567 101.812 29.56 101.795C29.5733 101.755 29.58 101.703 29.58 101.64C29.5833 101.577 29.585 101.508 29.585 101.435V99.35C29.585 99.2767 29.5833 99.2083 29.58 99.145C29.58 99.0783 29.5733 99.025 29.56 98.985C29.5567 98.965 29.53 98.95 29.48 98.94C29.4333 98.93 29.3833 98.9233 29.33 98.92C29.2767 98.9133 29.24 98.91 29.22 98.91C29.21 98.8967 29.2033 98.8733 29.2 98.84C29.2 98.8067 29.2067 98.7833 29.22 98.77C29.32 98.7733 29.4183 98.7783 29.515 98.785C29.6117 98.7883 29.7067 98.79 29.8 98.79C29.8967 98.79 30 98.7883 30.11 98.785C30.22 98.7817 30.3467 98.78 30.49 98.78ZM30.01 100.38V101.44C30.01 101.463 30.01 101.5 30.01 101.55C30.0133 101.597 30.0183 101.642 30.025 101.685C30.0317 101.728 30.04 101.757 30.05 101.77C30.0867 101.81 30.1367 101.835 30.2 101.845C30.2667 101.855 30.345 101.86 30.435 101.86C30.5583 101.86 30.6783 101.842 30.795 101.805C30.915 101.768 31.015 101.698 31.095 101.595C31.175 101.488 31.215 101.337 31.215 101.14C31.215 101.017 31.1917 100.898 31.145 100.785C31.0983 100.668 31.0083 100.572 30.875 100.495C30.745 100.418 30.555 100.38 30.305 100.38H30.01ZM30.01 100.195H30.415C30.5617 100.195 30.68 100.167 30.77 100.11C30.86 100.053 30.925 99.9817 30.965 99.895C31.0083 99.805 31.03 99.7133 31.03 99.62C31.03 99.4033 30.96 99.2367 30.82 99.12C30.6833 99 30.5017 98.94 30.275 98.94C30.245 98.94 30.1983 98.9417 30.135 98.945C30.075 98.9483 30.04 98.9617 30.03 98.985C30.02 99.0117 30.0133 99.0533 30.01 99.11C30.01 99.1667 30.01 99.2267 30.01 99.29C30.01 99.3033 30.01 99.315 30.01 99.325C30.01 99.335 30.01 99.345 30.01 99.355V100.195ZM32.3263 101.32C32.3263 101.32 32.3413 101.28 32.3713 101.2C32.4047 101.117 32.448 101.005 32.5013 100.865C32.5547 100.725 32.6147 100.57 32.6813 100.4C32.7513 100.227 32.8213 100.05 32.8913 99.87C32.9613 99.6867 33.028 99.5117 33.0913 99.345C33.158 99.1783 33.2163 99.0317 33.2663 98.905C33.2797 98.8783 33.308 98.8483 33.3513 98.815C33.398 98.7817 33.433 98.765 33.4563 98.765C33.463 98.765 33.4663 98.7667 33.4663 98.77C33.4697 98.77 33.4747 98.7717 33.4813 98.775L34.4763 101.385C34.5497 101.578 34.5913 101.685 34.6013 101.705C34.618 101.742 34.6497 101.773 34.6963 101.8C34.7463 101.827 34.7947 101.847 34.8413 101.86C34.8913 101.87 34.923 101.875 34.9363 101.875C34.9497 101.892 34.9547 101.918 34.9513 101.955C34.948 101.988 34.9447 102.008 34.9413 102.015C34.8447 102.008 34.758 102.003 34.6813 102C34.6047 101.993 34.513 101.99 34.4063 101.99C34.293 101.99 34.198 101.993 34.1213 102C34.048 102.003 33.9547 102.008 33.8413 102.015C33.828 102.002 33.8213 101.978 33.8213 101.945C33.8247 101.912 33.833 101.888 33.8463 101.875C33.8763 101.875 33.923 101.87 33.9863 101.86C34.0497 101.847 34.093 101.83 34.1163 101.81C34.1297 101.797 34.1363 101.773 34.1363 101.74C34.1363 101.71 34.1247 101.66 34.1013 101.59C34.0813 101.517 34.0547 101.435 34.0213 101.345C33.988 101.255 33.9547 101.168 33.9213 101.085C33.888 100.998 33.8597 100.928 33.8363 100.875C33.8163 100.818 33.8063 100.79 33.8063 100.79C33.8063 100.79 33.803 100.787 33.7963 100.78C33.7897 100.773 33.783 100.77 33.7763 100.77C33.7263 100.767 33.6647 100.765 33.5913 100.765C33.518 100.765 33.4497 100.765 33.3863 100.765C33.3697 100.765 33.353 100.765 33.3363 100.765C33.3197 100.765 33.3047 100.765 33.2913 100.765C33.1913 100.765 33.1063 100.767 33.0363 100.77C32.9663 100.77 32.8763 100.773 32.7663 100.78C32.763 100.78 32.758 100.783 32.7513 100.79C32.7447 100.793 32.7413 100.795 32.7413 100.795C32.7413 100.795 32.728 100.828 32.7013 100.895C32.678 100.962 32.648 101.042 32.6113 101.135C32.578 101.225 32.548 101.31 32.5213 101.39C32.4913 101.473 32.4713 101.543 32.4613 101.6C32.4547 101.657 32.4513 101.702 32.4513 101.735C32.4513 101.772 32.4763 101.802 32.5263 101.825C32.5797 101.845 32.633 101.858 32.6863 101.865C32.743 101.872 32.778 101.875 32.7913 101.875C32.798 101.882 32.803 101.903 32.8063 101.94C32.8097 101.973 32.808 101.998 32.8013 102.015C32.738 102.012 32.683 102.008 32.6363 102.005C32.593 102.002 32.548 101.998 32.5013 101.995C32.458 101.992 32.3997 101.99 32.3263 101.99C32.253 101.99 32.1913 101.992 32.1413 101.995C32.0913 101.998 32.0413 102.002 31.9913 102.005C31.9413 102.008 31.878 102.012 31.8013 102.015C31.7947 102.008 31.7913 101.988 31.7913 101.955C31.7913 101.918 31.7947 101.892 31.8013 101.875C31.8313 101.875 31.8813 101.868 31.9513 101.855C32.0247 101.838 32.073 101.813 32.0963 101.78C32.1463 101.717 32.188 101.647 32.2213 101.57C32.258 101.49 32.293 101.407 32.3263 101.32ZM33.2813 99.355L32.8363 100.545C32.8363 100.545 32.8363 100.548 32.8363 100.555C32.8397 100.562 32.843 100.565 32.8463 100.565C32.9097 100.568 32.9847 100.572 33.0713 100.575C33.1613 100.575 33.233 100.575 33.2863 100.575C33.363 100.575 33.4313 100.573 33.4913 100.57C33.5547 100.567 33.623 100.563 33.6963 100.56C33.703 100.56 33.7063 100.557 33.7063 100.55C33.7097 100.54 33.7113 100.535 33.7113 100.535L33.2813 99.355ZM36.4129 98.78C36.5229 98.78 36.6362 98.7983 36.7529 98.835C36.8695 98.8717 36.9762 98.925 37.0729 98.995C37.1729 99.065 37.2529 99.1533 37.3129 99.26C37.3729 99.3633 37.4029 99.485 37.4029 99.625C37.4029 99.7417 37.3695 99.855 37.3029 99.965C37.2395 100.075 37.1562 100.172 37.0529 100.255C36.9529 100.338 36.8479 100.398 36.7379 100.435C36.8245 100.578 36.9079 100.71 36.9879 100.83C37.0679 100.95 37.1512 101.07 37.2379 101.19C37.3245 101.307 37.4212 101.437 37.5279 101.58C37.5979 101.673 37.6729 101.743 37.7529 101.79C37.8362 101.837 37.9445 101.865 38.0779 101.875C38.0912 101.888 38.0945 101.913 38.0879 101.95C38.0812 101.987 38.0762 102.008 38.0729 102.015C37.9095 102.015 37.7729 102.01 37.6629 102C37.5562 101.987 37.4779 101.972 37.4279 101.955C37.3945 101.942 37.3479 101.922 37.2879 101.895C37.2279 101.865 37.1695 101.813 37.1129 101.74C37.0929 101.713 37.0562 101.662 37.0029 101.585C36.9495 101.508 36.8862 101.415 36.8129 101.305C36.7395 101.195 36.6612 101.078 36.5779 100.955C36.4945 100.828 36.4145 100.705 36.3379 100.585C36.3112 100.545 36.2612 100.525 36.1879 100.525H35.9329V101.435C35.9329 101.445 35.9329 101.455 35.9329 101.465C35.9329 101.475 35.9329 101.485 35.9329 101.495C35.9329 101.558 35.9329 101.617 35.9329 101.67C35.9362 101.72 35.9429 101.762 35.9529 101.795C35.9595 101.812 35.9862 101.827 36.0329 101.84C36.0795 101.853 36.1295 101.863 36.1829 101.87C36.2362 101.873 36.2729 101.875 36.2929 101.875C36.3029 101.888 36.3079 101.912 36.3079 101.945C36.3112 101.978 36.3062 102.002 36.2929 102.015C36.1929 102.008 36.0962 102.003 36.0029 102C35.9129 101.993 35.8195 101.99 35.7229 101.99C35.6295 101.99 35.5345 101.993 35.4379 102C35.3412 102.003 35.2429 102.008 35.1429 102.015C35.1295 102.002 35.1229 101.978 35.1229 101.945C35.1262 101.912 35.1329 101.888 35.1429 101.875C35.1629 101.875 35.1995 101.873 35.2529 101.87C35.3062 101.863 35.3562 101.853 35.4029 101.84C35.4529 101.827 35.4795 101.812 35.4829 101.795C35.4962 101.755 35.5029 101.703 35.5029 101.64C35.5062 101.577 35.5079 101.508 35.5079 101.435L35.5029 99.35C35.5029 99.2767 35.5012 99.2083 35.4979 99.145C35.4979 99.0783 35.4912 99.025 35.4779 98.985C35.4745 98.965 35.4479 98.95 35.3979 98.94C35.3512 98.93 35.3012 98.9233 35.2479 98.92C35.1979 98.9133 35.1629 98.91 35.1429 98.91C35.1329 98.8967 35.1262 98.8733 35.1229 98.84C35.1229 98.8067 35.1295 98.7833 35.1429 98.77C35.2429 98.7733 35.3395 98.7783 35.4329 98.785C35.5295 98.7883 35.6245 98.79 35.7179 98.79C35.8145 98.79 35.9179 98.7883 36.0279 98.785C36.1412 98.7817 36.2695 98.78 36.4129 98.78ZM36.9479 99.67C36.9479 99.4567 36.8895 99.2817 36.7729 99.145C36.6595 99.0083 36.4679 98.94 36.1979 98.94C36.1679 98.94 36.1212 98.9417 36.0579 98.945C35.9979 98.9483 35.9629 98.9617 35.9529 98.985C35.9395 99.015 35.9312 99.0667 35.9279 99.14C35.9279 99.21 35.9279 99.2817 35.9279 99.355L35.9329 100.375H36.1929C36.3195 100.375 36.4395 100.347 36.5529 100.29C36.6695 100.23 36.7645 100.148 36.8379 100.045C36.9112 99.9383 36.9479 99.8133 36.9479 99.67ZM39.4451 98.78C39.5551 98.78 39.6684 98.7933 39.7851 98.82C39.9017 98.8433 40.0084 98.8833 40.1051 98.94C40.2017 98.9933 40.2801 99.0667 40.3401 99.16C40.4001 99.2533 40.4301 99.37 40.4301 99.51C40.4301 99.6333 40.4001 99.745 40.3401 99.845C40.2834 99.945 40.2151 100.027 40.1351 100.09C40.0584 100.153 39.9917 100.197 39.9351 100.22C39.9251 100.227 39.9251 100.233 39.9351 100.24C39.9951 100.243 40.0651 100.263 40.1451 100.3C40.2251 100.337 40.3034 100.39 40.3801 100.46C40.4601 100.527 40.5251 100.608 40.5751 100.705C40.6251 100.802 40.6501 100.91 40.6501 101.03C40.6501 101.17 40.6251 101.3 40.5751 101.42C40.5284 101.54 40.4451 101.65 40.3251 101.75C40.2084 101.847 40.0551 101.915 39.8651 101.955C39.6751 101.992 39.4867 102.012 39.3001 102.015H38.1751C38.1617 102.002 38.1551 101.978 38.1551 101.945C38.1584 101.912 38.1651 101.888 38.1751 101.875C38.1951 101.875 38.2317 101.873 38.2851 101.87C38.3384 101.863 38.3884 101.853 38.4351 101.84C38.4851 101.827 38.5117 101.812 38.5151 101.795C38.5284 101.755 38.5351 101.703 38.5351 101.64C38.5384 101.577 38.5401 101.508 38.5401 101.435V99.35C38.5401 99.2767 38.5384 99.2083 38.5351 99.145C38.5351 99.0783 38.5284 99.025 38.5151 98.985C38.5117 98.965 38.4851 98.95 38.4351 98.94C38.3884 98.93 38.3384 98.9233 38.2851 98.92C38.2317 98.9133 38.1951 98.91 38.1751 98.91C38.1651 98.8967 38.1584 98.8733 38.1551 98.84C38.1551 98.8067 38.1617 98.7833 38.1751 98.77C38.2751 98.7733 38.3734 98.7783 38.4701 98.785C38.5667 98.7883 38.6617 98.79 38.7551 98.79C38.8517 98.79 38.9551 98.7883 39.0651 98.785C39.1751 98.7817 39.3017 98.78 39.4451 98.78ZM38.9651 100.38V101.44C38.9651 101.463 38.9651 101.5 38.9651 101.55C38.9684 101.597 38.9734 101.642 38.9801 101.685C38.9867 101.728 38.9951 101.757 39.0051 101.77C39.0417 101.81 39.0917 101.835 39.1551 101.845C39.2217 101.855 39.3001 101.86 39.3901 101.86C39.5134 101.86 39.6334 101.842 39.7501 101.805C39.8701 101.768 39.9701 101.698 40.0501 101.595C40.1301 101.488 40.1701 101.337 40.1701 101.14C40.1701 101.017 40.1467 100.898 40.1001 100.785C40.0534 100.668 39.9634 100.572 39.8301 100.495C39.7001 100.418 39.5101 100.38 39.2601 100.38H38.9651ZM38.9651 100.195H39.3701C39.5167 100.195 39.6351 100.167 39.7251 100.11C39.8151 100.053 39.8801 99.9817 39.9201 99.895C39.9634 99.805 39.9851 99.7133 39.9851 99.62C39.9851 99.4033 39.9151 99.2367 39.7751 99.12C39.6384 99 39.4567 98.94 39.2301 98.94C39.2001 98.94 39.1534 98.9417 39.0901 98.945C39.0301 98.9483 38.9951 98.9617 38.9851 98.985C38.9751 99.0117 38.9684 99.0533 38.9651 99.11C38.9651 99.1667 38.9651 99.2267 38.9651 99.29C38.9651 99.3033 38.9651 99.315 38.9651 99.325C38.9651 99.335 38.9651 99.345 38.9651 99.355V100.195ZM41.6359 98.79C41.8659 98.79 42.1193 98.785 42.3959 98.775C42.6726 98.765 42.9426 98.76 43.2059 98.76C43.2226 98.8833 43.2443 98.9967 43.2709 99.1C43.2976 99.2033 43.3226 99.31 43.3459 99.42C43.3293 99.4367 43.3009 99.445 43.2609 99.445C43.2176 99.445 43.1943 99.4333 43.1909 99.41C43.1376 99.2133 43.0626 99.0883 42.9659 99.035C42.8693 98.9817 42.7559 98.955 42.6259 98.955H42.2059C42.1859 98.955 42.1493 98.9567 42.0959 98.96C42.0426 98.96 41.9926 98.9633 41.9459 98.97C41.8993 98.9767 41.8726 98.9883 41.8659 99.005C41.8559 99.0383 41.8493 99.0817 41.8459 99.135C41.8459 99.1883 41.8459 99.2433 41.8459 99.3C41.8459 99.3233 41.8459 99.3417 41.8459 99.355V100.265C41.8459 100.278 41.8676 100.287 41.9109 100.29C41.9543 100.293 42.0026 100.295 42.0559 100.295H42.3109C42.4276 100.295 42.5176 100.292 42.5809 100.285C42.6476 100.278 42.6959 100.263 42.7259 100.24C42.7559 100.217 42.7793 100.182 42.7959 100.135C42.8126 100.088 42.8309 100.025 42.8509 99.945C42.8543 99.9217 42.8776 99.91 42.9209 99.91C42.9609 99.91 42.9893 99.9183 43.0059 99.935V100.855C42.9926 100.868 42.9659 100.875 42.9259 100.875C42.8859 100.875 42.8609 100.863 42.8509 100.84C42.8276 100.747 42.8076 100.68 42.7909 100.64C42.7776 100.597 42.7643 100.568 42.7509 100.555C42.7409 100.538 42.7276 100.525 42.7109 100.515C42.6943 100.502 42.6559 100.493 42.5959 100.49C42.5359 100.483 42.4693 100.48 42.3959 100.48C42.3259 100.477 42.2593 100.475 42.1959 100.475C42.1526 100.475 42.1026 100.477 42.0459 100.48C41.9926 100.48 41.9459 100.483 41.9059 100.49C41.8659 100.493 41.8459 100.503 41.8459 100.52V101.45C41.8459 101.457 41.8459 101.467 41.8459 101.48C41.8459 101.527 41.8459 101.587 41.8459 101.66C41.8493 101.733 41.8576 101.775 41.8709 101.785C41.9043 101.808 41.9443 101.823 41.9909 101.83C42.0409 101.833 42.1176 101.835 42.2209 101.835H42.4559C42.5726 101.835 42.6876 101.823 42.8009 101.8C42.9143 101.777 43.0043 101.743 43.0709 101.7C43.1476 101.653 43.2076 101.587 43.2509 101.5C43.2943 101.41 43.3359 101.313 43.3759 101.21C43.3826 101.19 43.4059 101.18 43.4459 101.18C43.5059 101.18 43.5459 101.19 43.5659 101.21C43.5193 101.343 43.4676 101.485 43.4109 101.635C43.3576 101.785 43.3226 101.913 43.3059 102.02C43.0426 102.02 42.7809 102.017 42.5209 102.01C42.2609 102.003 41.9676 102 41.6409 102C41.5276 102 41.4259 102.002 41.3359 102.005C41.2459 102.012 41.1526 102.015 41.0559 102.015C41.0426 102.002 41.0359 101.978 41.0359 101.945C41.0393 101.912 41.0459 101.888 41.0559 101.875C41.0759 101.875 41.1126 101.873 41.1659 101.87C41.2193 101.863 41.2693 101.853 41.3159 101.84C41.3659 101.827 41.3926 101.812 41.3959 101.795C41.4093 101.755 41.4159 101.703 41.4159 101.64C41.4193 101.577 41.4209 101.508 41.4209 101.435V99.35C41.4209 99.2767 41.4193 99.2083 41.4159 99.145C41.4159 99.0783 41.4093 99.025 41.3959 98.985C41.3926 98.965 41.3659 98.95 41.3159 98.94C41.2693 98.93 41.2193 98.9233 41.1659 98.92C41.1126 98.9133 41.0759 98.91 41.0559 98.91C41.0459 98.8967 41.0393 98.8733 41.0359 98.84C41.0359 98.8067 41.0426 98.7833 41.0559 98.77C41.1559 98.7733 41.2543 98.7783 41.3509 98.785C41.4476 98.7883 41.5426 98.79 41.6359 98.79ZM44.1671 101.32C44.1671 101.32 44.1821 101.28 44.2121 101.2C44.2455 101.117 44.2888 101.005 44.3421 100.865C44.3955 100.725 44.4555 100.57 44.5221 100.4C44.5921 100.227 44.6621 100.05 44.7321 99.87C44.8021 99.6867 44.8688 99.5117 44.9321 99.345C44.9988 99.1783 45.0571 99.0317 45.1071 98.905C45.1205 98.8783 45.1488 98.8483 45.1921 98.815C45.2388 98.7817 45.2738 98.765 45.2971 98.765C45.3038 98.765 45.3071 98.7667 45.3071 98.77C45.3105 98.77 45.3155 98.7717 45.3221 98.775L46.3171 101.385C46.3905 101.578 46.4321 101.685 46.4421 101.705C46.4588 101.742 46.4905 101.773 46.5371 101.8C46.5871 101.827 46.6355 101.847 46.6821 101.86C46.7321 101.87 46.7638 101.875 46.7771 101.875C46.7905 101.892 46.7955 101.918 46.7921 101.955C46.7888 101.988 46.7855 102.008 46.7821 102.015C46.6855 102.008 46.5988 102.003 46.5221 102C46.4455 101.993 46.3538 101.99 46.2471 101.99C46.1338 101.99 46.0388 101.993 45.9621 102C45.8888 102.003 45.7955 102.008 45.6821 102.015C45.6688 102.002 45.6621 101.978 45.6621 101.945C45.6655 101.912 45.6738 101.888 45.6871 101.875C45.7171 101.875 45.7638 101.87 45.8271 101.86C45.8905 101.847 45.9338 101.83 45.9571 101.81C45.9705 101.797 45.9771 101.773 45.9771 101.74C45.9771 101.71 45.9655 101.66 45.9421 101.59C45.9221 101.517 45.8955 101.435 45.8621 101.345C45.8288 101.255 45.7955 101.168 45.7621 101.085C45.7288 100.998 45.7005 100.928 45.6771 100.875C45.6571 100.818 45.6471 100.79 45.6471 100.79C45.6471 100.79 45.6438 100.787 45.6371 100.78C45.6305 100.773 45.6238 100.77 45.6171 100.77C45.5671 100.767 45.5055 100.765 45.4321 100.765C45.3588 100.765 45.2905 100.765 45.2271 100.765C45.2105 100.765 45.1938 100.765 45.1771 100.765C45.1605 100.765 45.1455 100.765 45.1321 100.765C45.0321 100.765 44.9471 100.767 44.8771 100.77C44.8071 100.77 44.7171 100.773 44.6071 100.78C44.6038 100.78 44.5988 100.783 44.5921 100.79C44.5855 100.793 44.5821 100.795 44.5821 100.795C44.5821 100.795 44.5688 100.828 44.5421 100.895C44.5188 100.962 44.4888 101.042 44.4521 101.135C44.4188 101.225 44.3888 101.31 44.3621 101.39C44.3321 101.473 44.3121 101.543 44.3021 101.6C44.2955 101.657 44.2921 101.702 44.2921 101.735C44.2921 101.772 44.3171 101.802 44.3671 101.825C44.4205 101.845 44.4738 101.858 44.5271 101.865C44.5838 101.872 44.6188 101.875 44.6321 101.875C44.6388 101.882 44.6438 101.903 44.6471 101.94C44.6505 101.973 44.6488 101.998 44.6421 102.015C44.5788 102.012 44.5238 102.008 44.4771 102.005C44.4338 102.002 44.3888 101.998 44.3421 101.995C44.2988 101.992 44.2405 101.99 44.1671 101.99C44.0938 101.99 44.0321 101.992 43.9821 101.995C43.9321 101.998 43.8821 102.002 43.8321 102.005C43.7821 102.008 43.7188 102.012 43.6421 102.015C43.6355 102.008 43.6321 101.988 43.6321 101.955C43.6321 101.918 43.6355 101.892 43.6421 101.875C43.6721 101.875 43.7221 101.868 43.7921 101.855C43.8655 101.838 43.9138 101.813 43.9371 101.78C43.9871 101.717 44.0288 101.647 44.0621 101.57C44.0988 101.49 44.1338 101.407 44.1671 101.32ZM45.1221 99.355L44.6771 100.545C44.6771 100.545 44.6771 100.548 44.6771 100.555C44.6805 100.562 44.6838 100.565 44.6871 100.565C44.7505 100.568 44.8255 100.572 44.9121 100.575C45.0021 100.575 45.0738 100.575 45.1271 100.575C45.2038 100.575 45.2721 100.573 45.3321 100.57C45.3955 100.567 45.4638 100.563 45.5371 100.56C45.5438 100.56 45.5471 100.557 45.5471 100.55C45.5505 100.54 45.5521 100.535 45.5521 100.535L45.1221 99.355ZM48.2537 98.78C48.3637 98.78 48.477 98.7983 48.5937 98.835C48.7103 98.8717 48.817 98.925 48.9137 98.995C49.0137 99.065 49.0937 99.1533 49.1537 99.26C49.2137 99.3633 49.2437 99.485 49.2437 99.625C49.2437 99.7417 49.2103 99.855 49.1437 99.965C49.0803 100.075 48.997 100.172 48.8937 100.255C48.7937 100.338 48.6887 100.398 48.5787 100.435C48.6653 100.578 48.7487 100.71 48.8287 100.83C48.9087 100.95 48.992 101.07 49.0787 101.19C49.1653 101.307 49.262 101.437 49.3687 101.58C49.4387 101.673 49.5137 101.743 49.5937 101.79C49.677 101.837 49.7853 101.865 49.9187 101.875C49.932 101.888 49.9353 101.913 49.9287 101.95C49.922 101.987 49.917 102.008 49.9137 102.015C49.7503 102.015 49.6137 102.01 49.5037 102C49.397 101.987 49.3187 101.972 49.2687 101.955C49.2353 101.942 49.1887 101.922 49.1287 101.895C49.0687 101.865 49.0103 101.813 48.9537 101.74C48.9337 101.713 48.897 101.662 48.8437 101.585C48.7903 101.508 48.727 101.415 48.6537 101.305C48.5803 101.195 48.502 101.078 48.4187 100.955C48.3353 100.828 48.2553 100.705 48.1787 100.585C48.152 100.545 48.102 100.525 48.0287 100.525H47.7737V101.435C47.7737 101.445 47.7737 101.455 47.7737 101.465C47.7737 101.475 47.7737 101.485 47.7737 101.495C47.7737 101.558 47.7737 101.617 47.7737 101.67C47.777 101.72 47.7837 101.762 47.7937 101.795C47.8003 101.812 47.827 101.827 47.8737 101.84C47.9203 101.853 47.9703 101.863 48.0237 101.87C48.077 101.873 48.1137 101.875 48.1337 101.875C48.1437 101.888 48.1487 101.912 48.1487 101.945C48.152 101.978 48.147 102.002 48.1337 102.015C48.0337 102.008 47.937 102.003 47.8437 102C47.7537 101.993 47.6603 101.99 47.5637 101.99C47.4703 101.99 47.3753 101.993 47.2787 102C47.182 102.003 47.0837 102.008 46.9837 102.015C46.9703 102.002 46.9637 101.978 46.9637 101.945C46.967 101.912 46.9737 101.888 46.9837 101.875C47.0037 101.875 47.0403 101.873 47.0937 101.87C47.147 101.863 47.197 101.853 47.2437 101.84C47.2937 101.827 47.3203 101.812 47.3237 101.795C47.337 101.755 47.3437 101.703 47.3437 101.64C47.347 101.577 47.3487 101.508 47.3487 101.435L47.3437 99.35C47.3437 99.2767 47.342 99.2083 47.3387 99.145C47.3387 99.0783 47.332 99.025 47.3187 98.985C47.3153 98.965 47.2887 98.95 47.2387 98.94C47.192 98.93 47.142 98.9233 47.0887 98.92C47.0387 98.9133 47.0037 98.91 46.9837 98.91C46.9737 98.8967 46.967 98.8733 46.9637 98.84C46.9637 98.8067 46.9703 98.7833 46.9837 98.77C47.0837 98.7733 47.1803 98.7783 47.2737 98.785C47.3703 98.7883 47.4653 98.79 47.5587 98.79C47.6553 98.79 47.7587 98.7883 47.8687 98.785C47.982 98.7817 48.1103 98.78 48.2537 98.78ZM48.7887 99.67C48.7887 99.4567 48.7303 99.2817 48.6137 99.145C48.5003 99.0083 48.3087 98.94 48.0387 98.94C48.0087 98.94 47.962 98.9417 47.8987 98.945C47.8387 98.9483 47.8037 98.9617 47.7937 98.985C47.7803 99.015 47.772 99.0667 47.7687 99.14C47.7687 99.21 47.7687 99.2817 47.7687 99.355L47.7737 100.375H48.0337C48.1603 100.375 48.2803 100.347 48.3937 100.29C48.5103 100.23 48.6053 100.148 48.6787 100.045C48.752 99.9383 48.7887 99.8133 48.7887 99.67ZM50.5959 98.79C50.6926 98.79 50.7859 98.7883 50.8759 98.785C50.9692 98.7783 51.0659 98.7733 51.1659 98.77C51.1792 98.7833 51.1842 98.8067 51.1809 98.84C51.1809 98.8733 51.1759 98.8967 51.1659 98.91C51.1459 98.91 51.1092 98.9133 51.0559 98.92C51.0026 98.9233 50.9526 98.93 50.9059 98.94C50.8592 98.95 50.8326 98.965 50.8259 98.985C50.8159 99.0183 50.8092 99.0617 50.8059 99.115C50.8059 99.1683 50.8059 99.2267 50.8059 99.29C50.8059 99.3 50.8059 99.31 50.8059 99.32C50.8059 99.33 50.8059 99.34 50.8059 99.35V101.435C50.8059 101.445 50.8059 101.455 50.8059 101.465C50.8059 101.475 50.8059 101.485 50.8059 101.495C50.8059 101.558 50.8059 101.617 50.8059 101.67C50.8092 101.72 50.8159 101.762 50.8259 101.795C50.8326 101.812 50.8592 101.827 50.9059 101.84C50.9526 101.853 51.0026 101.863 51.0559 101.87C51.1092 101.873 51.1459 101.875 51.1659 101.875C51.1759 101.888 51.1809 101.912 51.1809 101.945C51.1842 101.978 51.1792 102.002 51.1659 102.015C51.0659 102.008 50.9692 102.003 50.8759 102C50.7859 101.993 50.6926 101.99 50.5959 101.99C50.5026 101.99 50.4076 101.993 50.3109 102C50.2142 102.003 50.1159 102.008 50.0159 102.015C50.0026 102.002 49.9959 101.978 49.9959 101.945C49.9992 101.912 50.0059 101.888 50.0159 101.875C50.0359 101.875 50.0726 101.873 50.1259 101.87C50.1792 101.863 50.2292 101.853 50.2759 101.84C50.3259 101.827 50.3526 101.812 50.3559 101.795C50.3692 101.755 50.3759 101.703 50.3759 101.64C50.3792 101.577 50.3809 101.508 50.3809 101.435V99.35C50.3809 99.2767 50.3792 99.2083 50.3759 99.145C50.3759 99.0783 50.3692 99.025 50.3559 98.985C50.3526 98.965 50.3259 98.95 50.2759 98.94C50.2292 98.93 50.1792 98.9233 50.1259 98.92C50.0726 98.9133 50.0359 98.91 50.0159 98.91C50.0059 98.8967 49.9992 98.8733 49.9959 98.84C49.9959 98.8067 50.0026 98.7833 50.0159 98.77C50.1159 98.7733 50.2142 98.7783 50.3109 98.785C50.4076 98.7883 50.5026 98.79 50.5959 98.79ZM51.8429 101.32C51.8429 101.32 51.8579 101.28 51.8879 101.2C51.9213 101.117 51.9646 101.005 52.0179 100.865C52.0713 100.725 52.1313 100.57 52.1979 100.4C52.2679 100.227 52.3379 100.05 52.4079 99.87C52.4779 99.6867 52.5446 99.5117 52.6079 99.345C52.6746 99.1783 52.7329 99.0317 52.7829 98.905C52.7963 98.8783 52.8246 98.8483 52.8679 98.815C52.9146 98.7817 52.9496 98.765 52.9729 98.765C52.9796 98.765 52.9829 98.7667 52.9829 98.77C52.9863 98.77 52.9913 98.7717 52.9979 98.775L53.9929 101.385C54.0663 101.578 54.1079 101.685 54.1179 101.705C54.1346 101.742 54.1663 101.773 54.2129 101.8C54.2629 101.827 54.3113 101.847 54.3579 101.86C54.4079 101.87 54.4396 101.875 54.4529 101.875C54.4663 101.892 54.4713 101.918 54.4679 101.955C54.4646 101.988 54.4613 102.008 54.4579 102.015C54.3613 102.008 54.2746 102.003 54.1979 102C54.1213 101.993 54.0296 101.99 53.9229 101.99C53.8096 101.99 53.7146 101.993 53.6379 102C53.5646 102.003 53.4713 102.008 53.3579 102.015C53.3446 102.002 53.3379 101.978 53.3379 101.945C53.3413 101.912 53.3496 101.888 53.3629 101.875C53.3929 101.875 53.4396 101.87 53.5029 101.86C53.5663 101.847 53.6096 101.83 53.6329 101.81C53.6463 101.797 53.6529 101.773 53.6529 101.74C53.6529 101.71 53.6413 101.66 53.6179 101.59C53.5979 101.517 53.5713 101.435 53.5379 101.345C53.5046 101.255 53.4713 101.168 53.4379 101.085C53.4046 100.998 53.3763 100.928 53.3529 100.875C53.3329 100.818 53.3229 100.79 53.3229 100.79C53.3229 100.79 53.3196 100.787 53.3129 100.78C53.3063 100.773 53.2996 100.77 53.2929 100.77C53.2429 100.767 53.1813 100.765 53.1079 100.765C53.0346 100.765 52.9663 100.765 52.9029 100.765C52.8863 100.765 52.8696 100.765 52.8529 100.765C52.8363 100.765 52.8213 100.765 52.8079 100.765C52.7079 100.765 52.6229 100.767 52.5529 100.77C52.4829 100.77 52.3929 100.773 52.2829 100.78C52.2796 100.78 52.2746 100.783 52.2679 100.79C52.2613 100.793 52.2579 100.795 52.2579 100.795C52.2579 100.795 52.2446 100.828 52.2179 100.895C52.1946 100.962 52.1646 101.042 52.1279 101.135C52.0946 101.225 52.0646 101.31 52.0379 101.39C52.0079 101.473 51.9879 101.543 51.9779 101.6C51.9713 101.657 51.9679 101.702 51.9679 101.735C51.9679 101.772 51.9929 101.802 52.0429 101.825C52.0963 101.845 52.1496 101.858 52.2029 101.865C52.2596 101.872 52.2946 101.875 52.3079 101.875C52.3146 101.882 52.3196 101.903 52.3229 101.94C52.3263 101.973 52.3246 101.998 52.3179 102.015C52.2546 102.012 52.1996 102.008 52.1529 102.005C52.1096 102.002 52.0646 101.998 52.0179 101.995C51.9746 101.992 51.9163 101.99 51.8429 101.99C51.7696 101.99 51.7079 101.992 51.6579 101.995C51.6079 101.998 51.5579 102.002 51.5079 102.005C51.4579 102.008 51.3946 102.012 51.3179 102.015C51.3113 102.008 51.3079 101.988 51.3079 101.955C51.3079 101.918 51.3113 101.892 51.3179 101.875C51.3479 101.875 51.3979 101.868 51.4679 101.855C51.5413 101.838 51.5896 101.813 51.6129 101.78C51.6629 101.717 51.7046 101.647 51.7379 101.57C51.7746 101.49 51.8096 101.407 51.8429 101.32ZM52.7979 99.355L52.3529 100.545C52.3529 100.545 52.3529 100.548 52.3529 100.555C52.3563 100.562 52.3596 100.565 52.3629 100.565C52.4263 100.568 52.5013 100.572 52.5879 100.575C52.6779 100.575 52.7496 100.575 52.8029 100.575C52.8796 100.575 52.9479 100.573 53.0079 100.57C53.0713 100.567 53.1396 100.563 53.2129 100.56C53.2196 100.56 53.2229 100.557 53.2229 100.55C53.2263 100.54 53.2279 100.535 53.2279 100.535L52.7979 99.355Z" fill="#EEEEEE"/>
<path d="M52.32 56.74C52.32 56.62 52.32 56.5 52.32 56.38C52.32 56.26 52.32 56.14 52.32 56.02C52.32 55.26 52.3 54.58 52.26 53.98C52.26 53.34 52.2 52.82 52.08 52.42C52.04 52.18 51.72 52 51.12 51.88C50.56 51.72 49.96 51.62 49.32 51.58C48.72 51.5 48.3 51.46 48.06 51.46C47.94 51.3 47.86 51.02 47.82 50.62C47.82 50.22 47.9 49.94 48.06 49.78C49.26 49.82 50.42 49.88 51.54 49.96C52.66 50.04 53.78 50.08 54.9 50.08C56.06 50.08 57.14 50.04 58.14 49.96C59.18 49.88 60.3 49.82 61.5 49.78C61.66 49.94 61.72 50.22 61.68 50.62C61.68 51.02 61.62 51.3 61.5 51.46C61.26 51.46 60.84 51.5 60.24 51.58C59.64 51.62 59.08 51.72 58.56 51.88C58.04 52 57.74 52.18 57.66 52.42C57.5 52.9 57.4 53.52 57.36 54.28C57.36 55.04 57.36 55.86 57.36 56.74V60.88C57.36 61.52 57.46 62 57.66 62.32C57.86 62.64 57.96 62.96 57.96 63.28C57.96 63.44 57.9 63.58 57.78 63.7C57.66 63.82 57.34 64.02 56.82 64.3C55.98 64.74 55 65.2 53.88 65.68C52.8 66.16 51.42 66.56 49.74 66.88C48.1 67.2 45.98 67.36 43.38 67.36C40.5 67.36 37.86 66.86 35.46 65.86C33.06 64.82 30.98 63.42 29.22 61.66C27.5 59.86 26.16 57.82 25.2 55.54C24.28 53.22 23.82 50.76 23.82 48.16C23.82 45.4 24.3 42.82 25.26 40.42C26.26 37.98 27.64 35.82 29.4 33.94C31.16 32.06 33.24 30.6 35.64 29.56C38.08 28.48 40.74 27.94 43.62 27.94C45.54 27.94 47.54 28.02 49.62 28.18C51.74 28.34 53.88 28.66 56.04 29.14C56.04 29.14 56.1 29.56 56.22 30.4C56.38 31.2 56.54 32.16 56.7 33.28C56.86 34.36 57 35.36 57.12 36.28C57.28 37.16 57.36 37.68 57.36 37.84C57.4 38 57.28 38.16 57 38.32C56.72 38.48 56.42 38.56 56.1 38.56C55.82 38.56 55.58 38.5 55.38 38.38C55.3 37.94 55.1 37.26 54.78 36.34C54.5 35.42 53.96 34.46 53.16 33.46C52.4 32.46 51.28 31.62 49.8 30.94C48.32 30.22 46.36 29.86 43.92 29.86C41.76 29.86 39.8 30.36 38.04 31.36C36.28 32.32 34.76 33.64 33.48 35.32C32.24 36.96 31.28 38.8 30.6 40.84C29.96 42.84 29.64 44.86 29.64 46.9C29.64 49.18 29.94 51.42 30.54 53.62C31.18 55.82 32.12 57.82 33.36 59.62C34.64 61.38 36.22 62.8 38.1 63.88C40.02 64.92 42.26 65.44 44.82 65.44C46.34 65.44 47.68 65.24 48.84 64.84C50.04 64.4 51.08 63.96 51.96 63.52C52.16 63.44 52.26 63.34 52.26 63.22C52.3 63.06 52.32 62.88 52.32 62.68V56.74Z" fill="#EEEEEE"/>
<path d="M42.3 37C43.54 37 44.56 37.08 45.36 37.24C46.2 37.36 47.04 37.54 47.88 37.78C48.76 38.02 49.84 38.3 51.12 38.62C51.36 40.14 51.54 41.72 51.66 43.36C51.82 44.96 51.92 46.16 51.96 46.96C52 47.16 51.86 47.32 51.54 47.44C51.22 47.52 50.96 47.56 50.76 47.56C50.48 47.56 50.26 47.48 50.1 47.32C50.02 46.6 49.78 45.76 49.38 44.8C48.98 43.84 48.42 42.92 47.7 42.04C47.02 41.16 46.18 40.44 45.18 39.88C44.22 39.28 43.12 38.98 41.88 38.98C40.28 38.98 39.02 39.32 38.1 40C37.18 40.68 36.52 41.52 36.12 42.52C35.72 43.52 35.52 44.5 35.52 45.46C35.52 47.02 35.92 48.32 36.72 49.36C37.56 50.4 38.6 51.32 39.84 52.12C41.12 52.92 42.4 53.74 43.68 54.58C44.64 55.18 45.7 55.84 46.86 56.56C48.02 57.28 49.14 58.08 50.22 58.96C51.3 59.84 52.18 60.86 52.86 62.02C53.54 63.14 53.88 64.42 53.88 65.86C53.88 67.98 53.28 69.86 52.08 71.5C50.92 73.1 49.4 74.36 47.52 75.28C45.68 76.16 43.72 76.6 41.64 76.6C39.68 76.6 37.78 76.38 35.94 75.94C34.14 75.5 32.52 75.14 31.08 74.86C30.84 73.7 30.62 72.46 30.42 71.14C30.26 69.82 30.12 68.66 30 67.66C29.92 66.66 29.88 66.04 29.88 65.8C30.08 65.6 30.3 65.44 30.54 65.32C30.82 65.16 31.1 65.08 31.38 65.08C31.74 65.08 31.96 65.26 32.04 65.62C32.16 66.18 32.4 66.96 32.76 67.96C33.16 68.92 33.72 69.92 34.44 70.96C35.2 72 36.16 72.88 37.32 73.6C38.52 74.28 40 74.62 41.76 74.62C43.64 74.62 45.28 74 46.68 72.76C48.08 71.48 48.78 69.7 48.78 67.42C48.78 65.78 48.4 64.5 47.64 63.58C46.92 62.66 45.96 61.86 44.76 61.18C43.6 60.5 42.34 59.78 40.98 59.02C39.5 58.14 37.96 57.18 36.36 56.14C34.8 55.06 33.48 53.8 32.4 52.36C31.32 50.92 30.78 49.22 30.78 47.26C30.78 45.18 31.32 43.38 32.4 41.86C33.52 40.3 34.96 39.1 36.72 38.26C38.48 37.42 40.34 37 42.3 37Z" fill="#EEEEEE"/>
<rect y="100" width="26" height="1" rx="0.5" fill="#EEEEEE"/>
<rect x="58" y="100" width="23" height="1" rx="0.5" fill="#EEEEEE"/>
</svg>
